Coordinates
version=1
nRows=14
nColumns=63
inDegrees=yes

Units are S.I. units (second, meters, Newtons, ...)
If the header above contains a line with 'inDegrees', this indicates whether rotational values are in degrees (yes) or radians (no).

endheader
time	pelvis_tilt	pelvis_list	pelvis_rotation	pelvis_tx	pelvis_ty	pelvis_tz	hip_flexion_r	hip_adduction_r	hip_rotation_r	knee_angle_r	knee_angle_r_beta	ankle_angle_r	subtalar_angle_r	mtp_angle_r	hip_flexion_l	hip_adduction_l	hip_rotation_l	knee_angle_l	knee_angle_l_beta	ankle_angle_l	subtalar_angle_l	mtp_angle_l	L5_S1_Flex_Ext	L5_S1_Lat_Bending	L5_S1_axial_rotation	L4_L5_Flex_Ext	L4_L5_Lat_Bending	L4_L5_axial_rotation	L3_L4_Flex_Ext	L3_L4_Lat_Bending	L3_L4_axial_rotation	L2_L3_Flex_Ext	L2_L3_Lat_Bending	L2_L3_axial_rotation	L1_L2_Flex_Ext	L1_L2_Lat_Bending	L1_L2_axial_rotation	L1_T12_Flex_Ext	L1_T12_Lat_Bending	L1_T12_axial_rotation	Abs_r3	Abs_r2	Abs_r1	Abs_t1	Abs_t2	neck_flexion	neck_bending	neck_rotation	arm_flex_r	arm_add_r	arm_rot_r	elbow_flex_r	pro_sup_r	wrist_flex_r	wrist_dev_r	arm_flex_l	arm_add_l	arm_rot_l	elbow_flex_l	pro_sup_l	wrist_flex_l	wrist_dev_l
4.762712	-1.734850	-5.961129	101.837587	0.068116	0.947048	0.516313	-0.934224	-0.292341	-11.579612	4.617208	0.080585	20.425627	12.164442	0.000000	0.968122	1.002639	6.125854	2.287631	0.039927	23.000552	1.192039	0.000000	-0.154098	0.188262	-0.400223	-0.286175	0.250388	-0.425236	-0.253167	0.457740	-0.425236	-0.176118	0.457740	-0.350195	-0.143095	0.383903	-0.325181	-0.088051	0.291617	-0.300167	-1.100704	2.129655	-2.225918	0.000000	0.000000	13.045722	-0.452639	2.439365	2.999073	-18.706870	75.265347	19.007919	75.980123	-13.921083	-7.925990	-5.598850	-19.456449	29.297629	30.426787	88.583091	-14.215104	-6.270197
4.779661	-1.886558	-5.677804	101.362721	0.069149	0.947770	0.514977	-1.275588	-0.369249	-11.041151	4.644933	0.081069	20.337099	12.075778	0.000000	0.498309	1.077776	6.062988	2.149302	0.037512	22.859150	0.579555	0.000000	-0.157392	0.173306	-0.421882	-0.292292	0.230498	-0.448250	-0.258579	0.421377	-0.448250	-0.179883	0.421377	-0.369147	-0.146154	0.353407	-0.342779	-0.089934	0.268452	-0.316412	-1.124235	1.960477	-2.346383	0.000000	0.000000	13.453634	-0.453425	3.005330	2.825233	-19.023060	73.748494	19.204005	73.553919	-12.848045	-8.228598	-6.056369	-19.623118	27.709296	29.909533	88.276928	-14.303511	-7.566185
4.796610	-2.057862	-5.386596	100.860984	0.070211	0.948409	0.513401	-1.635990	-0.469561	-10.496852	4.666739	0.081450	20.254265	12.035732	0.000000	-0.021996	1.176340	5.937233	2.000729	0.034919	22.595664	-0.041039	0.000000	-0.159618	0.154224	-0.430130	-0.296427	0.205118	-0.457013	-0.262237	0.374980	-0.457013	-0.182428	0.374980	-0.376364	-0.148221	0.314494	-0.349481	-0.091206	0.238893	-0.322597	-1.140137	1.744613	-2.392254	0.000000	0.000000	13.897111	-0.474592	3.420613	2.762636	-19.210193	73.594893	19.159964	69.989575	-11.562108	-8.491700	-6.424255	-19.799784	26.494653	29.200202	87.630281	-14.765171	-9.301087
4.813559	-2.252732	-5.085282	100.341376	0.071294	0.948945	0.511602	-2.019536	-0.596477	-9.956635	4.681605	0.081709	20.198404	12.042631	0.000000	-0.590360	1.301673	5.726692	1.846053	0.032220	22.258959	-0.613139	0.000000	-0.162480	0.130735	-0.427476	-0.301742	0.173878	-0.454193	-0.266939	0.317869	-0.454193	-0.185699	0.317869	-0.374041	-0.150879	0.266595	-0.347324	-0.092841	0.202509	-0.320607	-1.160580	1.478900	-2.377493	0.000000	0.000000	14.379582	-0.511244	3.673517	2.842948	-19.253183	74.914428	18.869013	65.426153	-10.170836	-8.685892	-6.771475	-19.977802	25.268160	28.416476	86.952287	-15.394777	-11.280288
4.830508	-2.470942	-4.789379	99.799603	0.072388	0.949354	0.509599	-2.406222	-0.754569	-9.430227	4.695308	0.081949	20.167582	12.088179	0.000000	-1.188736	1.456069	5.411959	1.677170	0.029272	21.892957	-1.092654	0.000000	-0.164158	0.103193	-0.410832	-0.304857	0.137247	-0.436509	-0.269694	0.250904	-0.436509	-0.187616	0.250904	-0.359478	-0.152437	0.210432	-0.333801	-0.093800	0.159846	-0.308124	-1.172561	1.167343	-2.284925	0.000000	0.000000	14.888391	-0.552216	3.785290	3.019388	-19.165267	77.435818	18.376387	60.028434	-8.776719	-8.806024	-7.083921	-20.157055	24.085750	27.601490	86.183676	-16.076419	-13.291401
4.847458	-2.707404	-4.498000	99.248951	0.073436	0.949662	0.507502	-2.785593	-0.943488	-8.934774	4.724672	0.082461	20.174911	12.159460	0.000000	-1.801416	1.638454	5.035093	1.500271	0.026185	21.523544	-1.509974	0.000000	-0.166183	0.073200	-0.379274	-0.308619	0.097356	-0.402978	-0.273022	0.177979	-0.402978	-0.189931	0.177979	-0.331864	-0.154318	0.149270	-0.308160	-0.094957	0.113387	-0.284455	-1.187030	0.828057	-2.109406	0.000000	0.000000	15.412922	-0.603599	3.761167	3.255293	-18.997767	80.717666	17.777617	54.073177	-7.429278	-8.867633	-7.248945	-20.350261	23.375264	26.708369	85.319060	-16.937123	-15.137390
4.864407	-2.960006	-4.214142	98.697911	0.074427	0.949892	0.505387	-3.145695	-1.164800	-8.505634	4.786558	0.083541	20.225806	12.264383	0.000000	-2.412383	1.847692	4.597847	1.322963	0.023090	21.184664	-1.848784	0.000000	-0.169084	0.041542	-0.341171	-0.314005	0.055251	-0.362494	-0.277787	0.101005	-0.362494	-0.193246	0.101005	-0.298525	-0.157011	0.084712	-0.277202	-0.096614	0.064348	-0.255878	-1.207747	0.469931	-1.897492	0.000000	0.000000	15.942185	-0.663527	3.683509	3.597765	-18.777437	84.562205	17.134717	47.830573	-6.136929	-8.915670	-7.261867	-20.561857	23.172797	25.742161	84.390769	-17.884697	-16.727434
4.881356	-3.215148	-3.953931	98.160676	0.075320	0.950059	0.503358	-3.465958	-1.409906	-8.183763	4.876841	0.085117	20.307067	12.426904	0.000000	-2.987070	2.073708	4.061662	1.152230	0.020110	20.897783	-2.039305	0.000000	-0.170997	0.010094	-0.298493	-0.317558	0.013425	-0.317149	-0.280931	0.024543	-0.317149	-0.195432	0.024543	-0.261181	-0.158788	0.020584	-0.242526	-0.097708	0.015636	-0.223870	-1.221413	0.114189	-1.660129	0.000000	0.000000	16.483335	-0.672575	3.623994	4.048152	-18.522663	88.600703	16.471032	41.623399	-4.969882	-9.018923	-7.077747	-20.791002	23.596486	24.737865	83.496961	-18.850445	-17.713123
4.898305	-3.466224	-3.717233	97.643177	0.076096	0.950193	0.501476	-3.743567	-1.666504	-7.870243	4.998246	0.087236	20.401692	12.500822	0.000000	-3.514580	2.310651	3.542626	0.997314	0.017406	20.637797	-2.248497	0.000000	-0.172266	-0.019594	-0.254155	-0.319915	-0.026059	-0.270040	-0.283016	-0.047640	-0.270040	-0.196883	-0.047640	-0.222386	-0.159966	-0.039955	-0.206501	-0.098433	-0.030350	-0.190616	-1.230478	-0.221646	-1.413533	0.000000	0.000000	17.041074	-0.654409	3.619475	4.624991	-18.210575	93.118629	15.695255	35.426880	-3.806037	-9.193537	-6.672378	-21.042090	24.763509	23.708770	82.605531	-19.796399	-18.032245
4.915254	-3.699420	-3.502879	97.162614	0.076713	0.950324	0.499779	-3.981102	-1.918184	-7.582146	5.146447	0.089822	20.504907	12.495109	0.000000	-3.987554	2.542466	3.047222	0.865216	0.015101	20.406299	-2.457400	0.000000	-0.172707	-0.045315	-0.212389	-0.320734	-0.060269	-0.225663	-0.283740	-0.110180	-0.225663	-0.197387	-0.110180	-0.185840	-0.160376	-0.092407	-0.172566	-0.098685	-0.070193	-0.159292	-1.233629	-0.512616	-1.181244	0.000000	0.000000	17.627359	-0.619085	3.686367	5.321625	-17.859735	97.942071	14.829045	29.492418	-2.639377	-9.439477	-6.053583	-21.311097	26.657182	22.683242	81.740992	-20.701551	-17.716195
4.932203	-3.904989	-3.314257	96.758143	0.077118	0.950465	0.498279	-4.182287	-2.155362	-7.398097	5.310748	0.092690	20.627595	12.490120	0.000000	-4.393528	2.757811	2.640296	0.767783	0.013400	20.190469	-2.681599	0.000000	-0.170390	-0.066558	-0.172347	-0.316432	-0.088523	-0.183119	-0.279934	-0.161830	-0.183119	-0.194739	-0.161830	-0.150804	-0.158225	-0.135726	-0.140032	-0.097361	-0.103099	-0.129260	-1.217081	-0.752921	-0.958544	0.000000	0.000000	18.230313	-0.581446	3.728029	6.081714	-17.495422	102.699399	13.947082	24.120450	-1.565284	-9.726397	-5.197153	-21.621995	29.447716	21.697423	80.794819	-21.647955	-16.891784
4.949153	-4.085413	-3.140964	96.432344	0.077300	0.950619	0.496923	-4.380460	-2.364548	-7.154473	5.449704	0.095115	20.742641	12.300728	0.000000	-4.753450	2.954175	2.237850	0.700567	0.012227	20.007557	-2.824298	0.000000	-0.167634	-0.082857	-0.143047	-0.311313	-0.110200	-0.151987	-0.275406	-0.201459	-0.151987	-0.191589	-0.201459	-0.125166	-0.155665	-0.168962	-0.116226	-0.095786	-0.128346	-0.107285	-1.197393	-0.937297	-0.795584	0.000000	0.000000	18.881023	-0.570364	3.796811	6.877542	-17.112017	107.481037	12.969397	19.311982	-0.309904	-10.103036	-4.311363	-21.921096	32.335525	20.883228	80.064753	-22.481202	-15.823386
4.966102	-4.234996	-2.982986	96.166377	0.077330	0.950804	0.495660	-4.571853	-2.538368	-6.855070	5.565924	0.097144	20.847061	11.965049	0.000000	-5.078359	3.121867	1.865419	0.649647	0.011338	19.838882	-2.903572	0.000000	-0.163807	-0.094580	-0.110079	-0.304207	-0.125792	-0.116959	-0.269119	-0.229963	-0.116959	-0.187216	-0.229963	-0.096319	-0.152112	-0.192868	-0.089439	-0.093600	-0.146505	-0.082559	-1.170060	-1.069913	-0.612228	0.000000	0.000000	19.568013	-0.576589	3.807250	7.641557	-16.746453	111.775551	12.053909	15.262387	0.967348	-10.494583	-3.420957	-22.198352	35.252991	20.308163	79.490391	-23.288238	-14.621043
4.983051	-4.348293	-2.853931	95.991012	0.077170	0.950990	0.494433	-4.759318	-2.668309	-6.520383	5.635512	0.098358	20.930616	11.489871	0.000000	-5.351762	3.256524	1.573412	0.621854	0.010853	19.694848	-2.938897	0.000000	-0.156562	-0.101660	-0.081087	-0.290752	-0.135208	-0.086155	-0.257216	-0.247177	-0.086155	-0.178935	-0.247177	-0.070951	-0.145384	-0.207306	-0.065883	-0.089460	-0.157472	-0.060815	-1.118310	-1.150003	-0.450983	0.000000	0.000000	20.285588	-0.601295	3.750253	8.317264	-16.381082	115.660532	11.097148	11.940379	2.500733	-10.901278	-2.671886	-22.386734	37.595149	20.107069	79.209150	-23.781220	-13.287868
